<svg xmlns="http://www.w3.org/2000/svg" width="228" height="53" viewBox="0 0 228 53" xmlns:xlink="http://www.w3.org/1999/xlink">
  <defs>
    <polygon id="a" points=".031 22.242 .031 .23 15.354 .23 15.354 22.242 .031 22.242"></polygon>
    <polygon id="c" points="29.737 22.304 .058 22.304 .058 .323 29.737 .323"></polygon>
  </defs>
  <g fill="none" fill-rule="evenodd">
    <g transform="translate(0 24.932)">
      <mask id="b" fill="white">
        <use xlink:href="#a"></use>
      </mask>
      <path fill="white" d="M7.61666934,22.2422064 C4.38225698,22.2422064 2.05507043,21.4817714 0,19.3838224 L2.17589618,17.225101 C3.74766362,18.8062242 5.47072142,19.2929234 7.67656587,19.2929234 C10.4875718,19.2929234 12.1197521,18.0764351 12.1197521,15.9784861 C12.1197521,15.0357336 11.847636,14.2456915 11.2734555,13.7288657 C10.7292233,13.21204 10.1855074,12.9990766 8.91580432,12.8167592 L6.37743089,12.4521243 C4.62442483,12.208515 3.23389601,11.6007902 2.29723828,10.7188102 C1.23923845,9.71528524 0.725470844,8.34712542 0.725470844,6.58420422 C0.725470844,2.81423307 3.44559925,0.230104329 7.91873371,0.230104329 C10.7596879,0.230104329 12.7543454,0.959893452 14.5977126,2.69268812 L12.5121776,4.75999112 C11.182578,3.4827303 9.64127516,3.0874495 7.82785623,3.0874495 C5.28896645,3.0874495 3.89895398,4.54702775 3.89895398,6.46265927 C3.89895398,7.25270144 4.14060548,7.95236404 4.71478596,8.46918979 C5.25901818,8.95536959 6.13526304,9.32052386 7.13285,9.47271476 L9.58086229,9.83734961 C11.5755198,10.141212 12.6939326,10.6279112 13.600642,11.4485993 C14.7794676,12.4822508 15.3536481,14.0327281 15.3536481,15.8875871 C15.3536481,19.8700022 12.1197521,22.2422064 7.61666934,22.2422064" mask="url(#b)"></path>
    </g>
    <path fill="white" d="M23.9358907 46.991667C21.0649883 46.991667 19.7348724 44.9238446 19.7348724 42.7048701L19.7348724 34.2221754 17.9823827 34.2221754 17.9823827 31.8504906 19.7348724 31.8504906 19.7348724 27.1689323 22.8179944 27.1689323 22.8179944 31.8504906 25.7797743 31.8504906 25.7797743 34.2221754 22.8179944 34.2221754 22.8179944 42.5526792C22.8179944 43.6777492 23.3617102 44.3462464 24.5105876 44.3462464L25.7797743 44.3462464 25.7797743 46.991667 23.9358907 46.991667M37.8086489 40.1815139L34.2117592 40.1815139C32.3983403 40.1815139 31.4616826 41.002202 31.4616826 42.4004883 31.4616826 43.7992941 32.3379274 44.5898557 34.2726885 44.5898557 35.4509977 44.5898557 36.3277589 44.4984373 37.1435909 43.7083951 37.5969456 43.2523418 37.8086489 42.5220333 37.8086489 41.4276093L37.8086489 40.1815139zM37.8690617 46.991667L37.8690617 45.5933807C36.750649 46.7179312 35.6931655 47.1745039 33.7888691 47.1745039 31.8845727 47.1745039 30.615386 46.7179312 29.6782119 45.7751787 28.8928445 44.9544906 28.4694381 43.7691676 28.4694381 42.4612608 28.4694381 39.8776515 30.2523924 38.022273 33.7584045 38.022273L37.8086489 38.022273 37.8086489 36.9283685C37.8086489 34.9826104 36.8415265 34.0398579 34.4539271 34.0398579 32.7613339 34.0398579 31.9449856 34.4351387 31.0992053 35.5300821L29.0740832 33.6144506C30.5245085 31.9117825 32.0358631 31.3949567 34.5747528 31.3949567 38.7757712 31.3949567 40.8912545 33.1885239 40.8912545 36.6847592L40.8912545 46.991667 37.8690617 46.991667 37.8690617 46.991667zM51.6803743 47.1745039C48.234775 47.1745039 44.850105 45.045909 44.850105 39.2694073 44.850105 33.4929057 48.234775 31.3949567 51.6803743 31.3949567 53.7963739 31.3949567 55.2772639 32.0026815 56.7276892 33.5536781L54.6122059 35.6204617C53.6450836 34.5566837 52.8896645 34.1614029 51.6803743 34.1614029 50.5020651 34.1614029 49.5044781 34.6475827 48.8394201 35.5300821 48.1743622 36.3808968 47.9327107 37.4758402 47.9327107 39.2694073 47.9327107 41.0629745 48.1743622 42.1880444 48.8394201 43.038859 49.5044781 43.9208391 50.5020651 44.4070189 51.6803743 44.4070189 52.8896645 44.4070189 53.6450836 44.0122575 54.6122059 42.94796L56.7276892 44.9851365C55.2772639 46.5356138 53.7963739 47.1745039 51.6803743 47.1745039"></path>
    <polyline fill="white" points="69.934 46.992 65.642 39.878 63.376 42.461 63.376 46.992 60.293 46.992 60.293 25.344 63.376 25.344 63.376 38.691 69.33 31.577 73.077 31.577 67.758 37.628 73.742 46.992 69.934 46.992"></polyline>
    <polyline fill="#264981" points="76.915 46.992 76.915 25.344 91.09 25.344 91.09 29.115 81.116 29.115 81.116 34.192 89.609 34.192 89.609 37.962 81.116 37.962 81.116 43.222 91.09 43.222 91.09 46.992 76.915 46.992"></polyline>
    <polyline fill="#264981" points="103.541 46.992 100.64 42.249 97.768 46.992 93.053 46.992 98.494 38.905 93.265 31.152 97.98 31.152 100.64 35.682 103.329 31.152 108.044 31.152 102.815 38.905 108.256 46.992 103.541 46.992"></polyline>
    <path fill="#264981" d="M116.476022 47.1745039C113.333004 47.1745039 109.43405 45.4713163 109.43405 39.056444 109.43405 32.6415716 113.333004 30.96903 116.476022 30.96903 118.652435 30.96903 120.284099 31.6380466 121.674628 33.0976249L119.014912 35.7726526C118.198564 34.891192 117.503557 34.5265572 116.476022 34.5265572 115.539364 34.5265572 114.813894 34.8605461 114.239713 35.5602087 113.635068 36.3201243 113.362952 37.3844218 113.362952 39.056444 113.362952 40.7284661 113.635068 41.8234095 114.239713 42.5833252 114.813894 43.2824684 115.539364 43.6169767 116.476022 43.6169767 117.503557 43.6169767 118.198564 43.2523418 119.014912 42.3703618L121.674628 45.015263C120.284099 46.4748413 118.652435 47.1745039 116.476022 47.1745039M133.763399 46.991667L133.763399 37.3236493C133.763399 35.2257003 132.433283 34.5265572 131.194044 34.5265572 129.955322 34.5265572 128.655154 35.2558269 128.655154 37.3236493L128.655154 46.991667 124.726252 46.991667 124.726252 25.3441998 128.655154 25.3441998 128.655154 32.6109256C129.713154 31.5165017 131.042754 30.96903 132.433283 30.96903 135.878366 30.96903 137.692301 33.4014872 137.692301 36.7455316L137.692301 46.991667 133.763399 46.991667M149.901898 40.3030588L146.788311 40.3030588C145.367834 40.3030588 144.582467 40.971556 144.582467 42.096626 144.582467 43.1915694 145.307421 43.9208391 146.848724 43.9208391 147.937188 43.9208391 148.632711 43.8294206 149.327201 43.1609234 149.750607 42.7656426 149.901898 42.1272719 149.901898 41.1543929L149.901898 40.3030588zM149.992259 46.991667L149.992259 45.6235072C148.934775 46.6878047 147.937188 47.1438579 146.123769 47.1438579 144.340299 47.1438579 143.040647 46.6878047 142.10399 45.7455716 141.257693 44.8630721 140.804338 43.5863307 140.804338 42.1880444 140.804338 39.6641687 142.52688 37.5968657 146.184182 37.5968657L149.901898 37.5968657 149.901898 36.8068235C149.901898 35.0735094 149.055601 34.3135938 146.970066 34.3135938 145.458712 34.3135938 144.763705 34.6782286 143.947357 35.6204617L141.438932 33.1578779C142.980235 31.4557292 144.491589 30.96903 147.121356 30.96903 151.534078 30.96903 153.8308 32.8540155 153.8308 36.5632142L153.8308 46.991667 149.992259 46.991667 149.992259 46.991667z"></path>
    <g transform="translate(158.003 30.646)">
      <mask id="d" fill="white">
        <use xlink:href="#c"></use>
      </mask>
      <path fill="#264981" d="M9.2158033 16.3457181L9.2158033 6.76859933C9.2158033 4.60987791 7.85573909 3.88060821 6.61650064 3.88060821 5.37726219 3.88060821 3.98724972 4.60987791 3.98724972 6.76859933L3.98724972 16.3457181.0578311278 16.3457181.0578311278.505917869 3.89688859.505917869 3.89688859 1.96497669C4.92390745.870552719 6.37484914.323081021 7.82527448.323081021 9.39704192.323081021 10.666745.83990677 11.5429898 1.72188679 12.8121766 2.99862819 13.1447055 4.48833296 13.1447055 6.22164706L13.1447055 16.3457181 9.2158033 16.3457181M23.2083545 3.88060821C20.8811679 3.88060821 20.6400328 5.88713873 20.6400328 7.98456826 20.6400328 10.0825172 20.8811679 12.1196937 23.2083545 12.1196937 25.5360574 12.1196937 25.8076571 10.0825172 25.8076571 7.98456826 25.8076571 5.88713873 25.5360574 3.88060821 23.2083545 3.88060821zM22.815929 22.3351831C20.3978649 22.3351831 18.7357364 21.8490033 17.103556 20.2678801L19.5515683 17.7746504C20.4283295 18.625465 21.3045744 18.9911387 22.6346903 18.9911387 24.9918252 18.9911387 25.8076571 17.3185971 25.8076571 15.706828L25.8076571 14.0960977C24.7801219 15.2512941 23.6018127 15.6767014 22.0605099 15.6767014 20.5186907 15.6767014 19.1890911 15.1598757 18.3123299 14.2778957 16.8319563 12.7881909 16.7106142 10.7515339 16.7106142 7.98456826 16.7106142 5.21812209 16.8319563 3.21159156 18.3123299 1.72188679 19.1890911.83990677 20.5491553.323081021 22.0904581.323081021 23.7525867.323081021 24.8405348.779134295 25.9289992 1.99562264L25.9289992.505917869 29.7370757.505917869 29.7370757 15.7681199C29.7370757 19.5682175 27.0468956 22.3351831 22.815929 22.3351831L22.815929 22.3351831z" mask="url(#d)"></path>
    </g>
    <path fill="#264981" d="M200.855768,35.894717 C200.432878,34.9519645 199.556633,34.2528213 198.226518,34.2528213 C196.896918,34.2528213 196.020157,34.9519645 195.597267,35.894717 C195.355615,36.4723152 195.264738,36.8977225 195.234273,37.5968657 L201.218762,37.5968657 C201.188814,36.8977225 201.097936,36.4723152 200.855768,35.894717 Z M195.234273,40.3030588 C195.234273,42.3402353 196.474028,43.8294206 198.679872,43.8294206 C200.402414,43.8294206 201.249227,43.3437603 202.246814,42.3402353 L204.634413,44.6812741 C203.032181,46.2920044 201.490878,47.1745039 198.649924,47.1745039 C194.932725,47.1745039 191.365784,45.4713163 191.365784,39.056444 C191.365784,33.887667 194.146325,30.96903 198.226518,30.96903 C202.609291,30.96903 205.087768,34.1915294 205.087768,38.5390988 L205.087768,40.3030588 L195.234273,40.3030588 L195.234273,40.3030588 Z"></path>
    <polygon fill="#3863A0" points="205.597 16.985 227.909 16.985 227.909 12.369 205.597 12.369"></polygon>
    <polygon fill="#4C97C6" points="205.597 11.04 227.909 11.04 227.909 6.423 205.597 6.423"></polygon>
    <path fill="#90D2E8" d="M224.368253,0.208807991 L209.134398,0.208807991 C207.180532,0.208807991 205.597405,1.86109212 205.597405,3.89671032 L205.597405,5.09553829 L227.90886,5.09553829 L227.90886,3.89671032 C227.90886,1.86109212 226.323668,0.208807991 224.368253,0.208807991"></path>
    <path fill="#264981" d="M205.597405,18.2857625 L205.597405,19.4845905 C205.597405,21.5202087 207.180532,23.1724928 209.134398,23.1724928 L218.663109,23.1724928 L218.663109,28.0477958 L223.339685,23.1724928 L224.368253,23.1724928 C226.323668,23.1724928 227.90886,21.5202087 227.90886,19.4845905 L227.90886,18.2857625 L205.597405,18.2857625"></path>
    <path fill="#435A8E" d="M209.782932,23.1724928 L209.134398,23.1724928 C207.180532,23.1724928 205.597405,21.5202087 205.597405,19.4845905 L205.597405,18.2857625 L214.470352,18.2857625 L209.782932,23.1724928"></path>
    <polyline fill="#68A3CC" points="221.42 11.04 205.597 11.04 205.597 6.423 225.849 6.423 221.42 11.04"></polyline>
    <polyline fill="#5372AA" points="215.718 16.985 205.597 16.985 205.597 12.369 220.146 12.369 215.718 16.985"></polyline>
  </g>
</svg>